<svg xmlns="http://www.w3.org/2000/svg" viewBox="0 0 1200 820" style="background:#0A0E1A">
<style>
  text { font-family: Arial, Helvetica, sans-serif; }
  .team { font-size: 11px; fill: #94A3B8; }
  .team-win { font-size: 11px; fill: #22C55E; font-weight: 700; }
  .team-az { font-size: 11px; fill: #CC0033; font-weight: 700; }
  .seed { font-size: 9px; fill: #475569; }
  .rl { font-size: 10px; fill: #E8A317; font-weight: 700; letter-spacing: 2px; }
  .rg { font-size: 14px; fill: #FFF; font-weight: 700; }
  .slot { fill: #111827; stroke: #1E293B; stroke-width: 0.5; }
  .sw { fill: #111827; stroke: #22C55E; stroke-width: 0.8; }
  .sa { fill: rgba(204,0,51,0.08); stroke: #CC0033; stroke-width: 1; }
  .upset { fill: #F59E0B; }
</style>

<line x1="0" y1="0" x2="1200" y2="0" stroke="#CC0033" stroke-width="3"/>
<text x="600" y="30" text-anchor="middle" font-size="18" font-weight="900" fill="#FFF" letter-spacing="1">2026 NCAA TOURNAMENT BRACKET</text>
<text x="600" y="46" text-anchor="middle" font-size="10" fill="#E8A317" font-weight="700" letter-spacing="3">ARIZONA WILDCATS — NATIONAL CHAMPIONS</text>

<!-- Round labels -->
<text x="68" y="70" text-anchor="middle" class="rl">R64</text>
<text x="200" y="70" text-anchor="middle" class="rl">R32</text>
<text x="315" y="70" text-anchor="middle" class="rl">S16</text>
<text x="420" y="70" text-anchor="middle" class="rl">E8</text>
<text x="520" y="70" text-anchor="middle" class="rl">F4</text>
<text x="680" y="70" text-anchor="middle" class="rl">F4</text>
<text x="780" y="70" text-anchor="middle" class="rl">E8</text>
<text x="885" y="70" text-anchor="middle" class="rl">S16</text>
<text x="1000" y="70" text-anchor="middle" class="rl">R32</text>
<text x="1132" y="70" text-anchor="middle" class="rl">R64</text>

<!-- ====== WEST (top-left) ====== -->
<text x="68" y="92" text-anchor="middle" class="rg" fill="#CC0033">WEST</text>

<rect x="10" y="100" width="116" height="15" rx="2" class="sa"/><text x="14" y="111" class="seed">(1)</text><text x="30" y="111" class="team-az">Arizona</text>
<rect x="10" y="115" width="116" height="15" rx="2" class="slot"/><text x="14" y="126" class="seed">(16)</text><text x="34" y="126" class="team">LIU</text>
<rect x="10" y="135" width="116" height="15" rx="2" class="slot"/><text x="14" y="146" class="seed">(8)</text><text x="30" y="146" class="team">Villanova</text>
<rect x="10" y="150" width="116" height="15" rx="2" class="sw"/><text x="14" y="161" class="seed">(9)</text><text x="30" y="161" class="team-win">Utah State</text>
<rect x="10" y="170" width="116" height="15" rx="2" class="sw"/><text x="14" y="181" class="seed">(5)</text><text x="30" y="181" class="team-win">Wisconsin</text>
<rect x="10" y="185" width="116" height="15" rx="2" class="slot"/><text x="14" y="196" class="seed">(12)</text><text x="34" y="196" class="team">High Point</text>
<rect x="10" y="205" width="116" height="15" rx="2" class="sw"/><text x="14" y="216" class="seed">(4)</text><text x="30" y="216" class="team-win">Arkansas</text>
<rect x="10" y="220" width="116" height="15" rx="2" class="slot"/><text x="14" y="231" class="seed">(13)</text><text x="34" y="231" class="team">Hawaii</text>
<rect x="10" y="240" width="116" height="15" rx="2" class="slot"/><text x="14" y="251" class="seed">(6)</text><text x="30" y="251" class="team">BYU</text>
<rect x="10" y="255" width="116" height="15" rx="2" class="sw"/><text x="14" y="266" class="seed">(11)</text><text x="34" y="266" class="team-win">Texas</text><text x="120" y="266" class="upset" font-size="8">★</text>
<rect x="10" y="275" width="116" height="15" rx="2" class="sw"/><text x="14" y="286" class="seed">(3)</text><text x="30" y="286" class="team-win">Gonzaga</text>
<rect x="10" y="290" width="116" height="15" rx="2" class="slot"/><text x="14" y="301" class="seed">(14)</text><text x="34" y="301" class="team">Kennesaw St</text>
<rect x="10" y="310" width="116" height="15" rx="2" class="sw"/><text x="14" y="321" class="seed">(7)</text><text x="30" y="321" class="team-win">Miami (FL)</text>
<rect x="10" y="325" width="116" height="15" rx="2" class="slot"/><text x="14" y="336" class="seed">(10)</text><text x="34" y="336" class="team">Missouri</text>
<rect x="10" y="345" width="116" height="15" rx="2" class="sw"/><text x="14" y="356" class="seed">(2)</text><text x="30" y="356" class="team-win">Purdue</text>
<rect x="10" y="360" width="116" height="15" rx="2" class="slot"/><text x="14" y="371" class="seed">(15)</text><text x="34" y="371" class="team">Queens</text>

<!-- R32 West -->
<rect x="145" y="118" width="110" height="15" rx="2" class="sa"/><text x="149" y="129" class="seed">(1)</text><text x="165" y="129" class="team-az">Arizona</text>
<rect x="145" y="133" width="110" height="15" rx="2" class="slot"/><text x="149" y="144" class="seed">(9)</text><text x="165" y="144" class="team">Utah State</text>
<rect x="145" y="188" width="110" height="15" rx="2" class="slot"/><text x="149" y="199" class="seed">(5)</text><text x="165" y="199" class="team">Wisconsin</text>
<rect x="145" y="203" width="110" height="15" rx="2" class="sw"/><text x="149" y="214" class="seed">(4)</text><text x="165" y="214" class="team-win">Arkansas</text>
<rect x="145" y="258" width="110" height="15" rx="2" class="slot"/><text x="149" y="269" class="seed">(3)</text><text x="165" y="269" class="team">Gonzaga</text>
<rect x="145" y="273" width="110" height="15" rx="2" class="sw"/><text x="149" y="284" class="seed">(11)</text><text x="165" y="284" class="team-win">Texas</text><text x="249" y="284" class="upset" font-size="8">★</text>
<rect x="145" y="328" width="110" height="15" rx="2" class="slot"/><text x="149" y="339" class="seed">(7)</text><text x="165" y="339" class="team">Miami (FL)</text>
<rect x="145" y="343" width="110" height="15" rx="2" class="sw"/><text x="149" y="354" class="seed">(2)</text><text x="165" y="354" class="team-win">Purdue</text>

<!-- S16 West -->
<rect x="270" y="155" width="110" height="15" rx="2" class="sa"/><text x="274" y="166" class="seed">(1)</text><text x="290" y="166" class="team-az">Arizona</text>
<rect x="270" y="170" width="110" height="15" rx="2" class="slot"/><text x="274" y="181" class="seed">(4)</text><text x="290" y="181" class="team">Arkansas</text>
<rect x="270" y="295" width="110" height="15" rx="2" class="sw"/><text x="274" y="306" class="seed">(2)</text><text x="290" y="306" class="team-win">Purdue</text>
<rect x="270" y="310" width="110" height="15" rx="2" class="slot"/><text x="274" y="321" class="seed">(11)</text><text x="290" y="321" class="team">Texas</text>

<!-- E8 West -->
<rect x="395" y="220" width="110" height="15" rx="2" class="sa"/><text x="399" y="231" class="seed">(1)</text><text x="415" y="231" class="team-az">Arizona</text>
<rect x="395" y="235" width="110" height="15" rx="2" class="slot"/><text x="399" y="246" class="seed">(2)</text><text x="415" y="246" class="team">Purdue</text>

<!-- ====== EAST (bottom-left) ====== -->
<text x="68" y="406" text-anchor="middle" class="rg" fill="#4488CC">EAST</text>

<rect x="10" y="415" width="116" height="15" rx="2" class="sw"/><text x="14" y="426" class="seed">(1)</text><text x="30" y="426" class="team-win">Duke</text>
<rect x="10" y="430" width="116" height="15" rx="2" class="slot"/><text x="14" y="441" class="seed">(16)</text><text x="34" y="441" class="team">Siena</text>
<rect x="10" y="450" width="116" height="15" rx="2" class="slot"/><text x="14" y="461" class="seed">(8)</text><text x="30" y="461" class="team">Ohio State</text>
<rect x="10" y="465" width="116" height="15" rx="2" class="sw"/><text x="14" y="476" class="seed">(9)</text><text x="30" y="476" class="team-win">TCU</text>
<rect x="10" y="485" width="116" height="15" rx="2" class="sw"/><text x="14" y="496" class="seed">(5)</text><text x="30" y="496" class="team-win">St. John's</text>
<rect x="10" y="500" width="116" height="15" rx="2" class="slot"/><text x="14" y="511" class="seed">(12)</text><text x="34" y="511" class="team">N. Iowa</text>
<rect x="10" y="520" width="116" height="15" rx="2" class="sw"/><text x="14" y="531" class="seed">(4)</text><text x="30" y="531" class="team-win">Kansas</text>
<rect x="10" y="535" width="116" height="15" rx="2" class="slot"/><text x="14" y="546" class="seed">(13)</text><text x="34" y="546" class="team">Cal Baptist</text>
<rect x="10" y="555" width="116" height="15" rx="2" class="slot"/><text x="14" y="566" class="seed">(6)</text><text x="30" y="566" class="team">Louisville</text>
<rect x="10" y="570" width="116" height="15" rx="2" class="sw"/><text x="14" y="581" class="seed">(11)</text><text x="34" y="581" class="team-win">S. Florida</text><text x="120" y="581" class="upset" font-size="8">★</text>
<rect x="10" y="590" width="116" height="15" rx="2" class="sw"/><text x="14" y="601" class="seed">(3)</text><text x="30" y="601" class="team-win">Michigan St</text>
<rect x="10" y="605" width="116" height="15" rx="2" class="slot"/><text x="14" y="616" class="seed">(14)</text><text x="34" y="616" class="team">ND State</text>
<rect x="10" y="625" width="116" height="15" rx="2" class="sw"/><text x="14" y="636" class="seed">(7)</text><text x="30" y="636" class="team-win">UCLA</text>
<rect x="10" y="640" width="116" height="15" rx="2" class="slot"/><text x="14" y="651" class="seed">(10)</text><text x="34" y="651" class="team">UCF</text>
<rect x="10" y="660" width="116" height="15" rx="2" class="sw"/><text x="14" y="671" class="seed">(2)</text><text x="30" y="671" class="team-win">UConn</text>
<rect x="10" y="675" width="116" height="15" rx="2" class="slot"/><text x="14" y="686" class="seed">(15)</text><text x="34" y="686" class="team">Furman</text>

<!-- R32 East -->
<rect x="145" y="433" width="110" height="15" rx="2" class="sw"/><text x="149" y="444" class="seed">(1)</text><text x="165" y="444" class="team-win">Duke</text>
<rect x="145" y="448" width="110" height="15" rx="2" class="slot"/><text x="149" y="459" class="seed">(9)</text><text x="165" y="459" class="team">TCU</text>
<rect x="145" y="503" width="110" height="15" rx="2" class="slot"/><text x="149" y="514" class="seed">(5)</text><text x="165" y="514" class="team">St. John's</text>
<rect x="145" y="518" width="110" height="15" rx="2" class="sw"/><text x="149" y="529" class="seed">(4)</text><text x="165" y="529" class="team-win">Kansas</text>
<rect x="145" y="573" width="110" height="15" rx="2" class="sw"/><text x="149" y="584" class="seed">(3)</text><text x="165" y="584" class="team-win">Michigan St</text>
<rect x="145" y="588" width="110" height="15" rx="2" class="slot"/><text x="149" y="599" class="seed">(11)</text><text x="165" y="599" class="team">S. Florida</text>
<rect x="145" y="643" width="110" height="15" rx="2" class="sw"/><text x="149" y="654" class="seed">(2)</text><text x="165" y="654" class="team-win">UConn</text>
<rect x="145" y="658" width="110" height="15" rx="2" class="slot"/><text x="149" y="669" class="seed">(7)</text><text x="165" y="669" class="team">UCLA</text>

<!-- S16 East -->
<rect x="270" y="468" width="110" height="15" rx="2" class="sw"/><text x="274" y="479" class="seed">(1)</text><text x="290" y="479" class="team-win">Duke</text>
<rect x="270" y="483" width="110" height="15" rx="2" class="slot"/><text x="274" y="494" class="seed">(4)</text><text x="290" y="494" class="team">Kansas</text>
<rect x="270" y="608" width="110" height="15" rx="2" class="sw"/><text x="274" y="619" class="seed">(2)</text><text x="290" y="619" class="team-win">UConn</text>
<rect x="270" y="623" width="110" height="15" rx="2" class="slot"/><text x="274" y="634" class="seed">(3)</text><text x="290" y="634" class="team">Michigan St</text>

<!-- E8 East -->
<rect x="395" y="538" width="110" height="15" rx="2" class="sw"/><text x="399" y="549" class="seed">(1)</text><text x="415" y="549" class="team-win">Duke</text>
<rect x="395" y="553" width="110" height="15" rx="2" class="slot"/><text x="399" y="564" class="seed">(2)</text><text x="415" y="564" class="team">UConn</text>

<!-- ====== MIDWEST (top-right) ====== -->
<text x="1132" y="92" text-anchor="middle" class="rg" fill="#FFCB05">MIDWEST</text>

<rect x="1074" y="100" width="116" height="15" rx="2" class="sw"/><text x="1078" y="111" class="seed">(1)</text><text x="1094" y="111" class="team-win">Michigan</text>
<rect x="1074" y="115" width="116" height="15" rx="2" class="slot"/><text x="1078" y="126" class="seed">(16)</text><text x="1098" y="126" class="team">UMBC/Howard</text>
<rect x="1074" y="135" width="116" height="15" rx="2" class="slot"/><text x="1078" y="146" class="seed">(8)</text><text x="1094" y="146" class="team">Georgia</text>
<rect x="1074" y="150" width="116" height="15" rx="2" class="sw"/><text x="1078" y="161" class="seed">(9)</text><text x="1094" y="161" class="team-win">Saint Louis</text>
<rect x="1074" y="170" width="116" height="15" rx="2" class="sw"/><text x="1078" y="181" class="seed">(5)</text><text x="1094" y="181" class="team-win">Texas Tech</text>
<rect x="1074" y="185" width="116" height="15" rx="2" class="slot"/><text x="1078" y="196" class="seed">(12)</text><text x="1098" y="196" class="team">Akron</text>
<rect x="1074" y="205" width="116" height="15" rx="2" class="slot"/><text x="1078" y="216" class="seed">(4)</text><text x="1094" y="216" class="team">Alabama</text>
<rect x="1074" y="220" width="116" height="15" rx="2" class="sw"/><text x="1078" y="231" class="seed">(13)</text><text x="1098" y="231" class="team-win">Hofstra</text><text x="1184" y="231" class="upset" font-size="8">★</text>
<rect x="1074" y="240" width="116" height="15" rx="2" class="sw"/><text x="1078" y="251" class="seed">(6)</text><text x="1094" y="251" class="team-win">Tennessee</text>
<rect x="1074" y="255" width="116" height="15" rx="2" class="slot"/><text x="1078" y="266" class="seed">(11)</text><text x="1098" y="266" class="team">SMU/Miami</text>
<rect x="1074" y="275" width="116" height="15" rx="2" class="sw"/><text x="1078" y="286" class="seed">(3)</text><text x="1094" y="286" class="team-win">Virginia</text>
<rect x="1074" y="290" width="116" height="15" rx="2" class="slot"/><text x="1078" y="301" class="seed">(14)</text><text x="1098" y="301" class="team">Wright St</text>
<rect x="1074" y="310" width="116" height="15" rx="2" class="slot"/><text x="1078" y="321" class="seed">(7)</text><text x="1094" y="321" class="team">Kentucky</text>
<rect x="1074" y="325" width="116" height="15" rx="2" class="sw"/><text x="1078" y="336" class="seed">(10)</text><text x="1098" y="336" class="team-win">Santa Clara</text><text x="1184" y="336" class="upset" font-size="8">★</text>
<rect x="1074" y="345" width="116" height="15" rx="2" class="sw"/><text x="1078" y="356" class="seed">(2)</text><text x="1094" y="356" class="team-win">Iowa State</text>
<rect x="1074" y="360" width="116" height="15" rx="2" class="slot"/><text x="1078" y="371" class="seed">(15)</text><text x="1098" y="371" class="team">Tenn. St</text>

<!-- R32 Midwest -->
<rect x="945" y="118" width="110" height="15" rx="2" class="sw"/><text x="949" y="129" class="seed">(1)</text><text x="965" y="129" class="team-win">Michigan</text>
<rect x="945" y="133" width="110" height="15" rx="2" class="slot"/><text x="949" y="144" class="seed">(9)</text><text x="965" y="144" class="team">Saint Louis</text>
<rect x="945" y="188" width="110" height="15" rx="2" class="sw"/><text x="949" y="199" class="seed">(5)</text><text x="965" y="199" class="team-win">Texas Tech</text>
<rect x="945" y="203" width="110" height="15" rx="2" class="slot"/><text x="949" y="214" class="seed">(13)</text><text x="965" y="214" class="team">Hofstra</text>
<rect x="945" y="258" width="110" height="15" rx="2" class="sw"/><text x="949" y="269" class="seed">(3)</text><text x="965" y="269" class="team-win">Virginia</text>
<rect x="945" y="273" width="110" height="15" rx="2" class="slot"/><text x="949" y="284" class="seed">(6)</text><text x="965" y="284" class="team">Tennessee</text>
<rect x="945" y="328" width="110" height="15" rx="2" class="sw"/><text x="949" y="339" class="seed">(2)</text><text x="965" y="339" class="team-win">Iowa State</text>
<rect x="945" y="343" width="110" height="15" rx="2" class="slot"/><text x="949" y="354" class="seed">(10)</text><text x="965" y="354" class="team">Santa Clara</text>

<!-- S16 Midwest -->
<rect x="815" y="155" width="110" height="15" rx="2" class="sw"/><text x="819" y="166" class="seed">(1)</text><text x="835" y="166" class="team-win">Michigan</text>
<rect x="815" y="170" width="110" height="15" rx="2" class="slot"/><text x="819" y="181" class="seed">(5)</text><text x="835" y="181" class="team">Texas Tech</text>
<rect x="815" y="295" width="110" height="15" rx="2" class="sw"/><text x="819" y="306" class="seed">(2)</text><text x="835" y="306" class="team-win">Iowa State</text>
<rect x="815" y="310" width="110" height="15" rx="2" class="slot"/><text x="819" y="321" class="seed">(3)</text><text x="835" y="321" class="team">Virginia</text>

<!-- E8 Midwest -->
<rect x="685" y="220" width="110" height="15" rx="2" class="sw"/><text x="689" y="231" class="seed">(1)</text><text x="705" y="231" class="team-win">Michigan</text>
<rect x="685" y="235" width="110" height="15" rx="2" class="slot"/><text x="689" y="246" class="seed">(2)</text><text x="705" y="246" class="team">Iowa State</text>

<!-- ====== SOUTH (bottom-right) ====== -->
<text x="1132" y="406" text-anchor="middle" class="rg" fill="#FA4616">SOUTH</text>

<rect x="1074" y="415" width="116" height="15" rx="2" class="sw"/><text x="1078" y="426" class="seed">(1)</text><text x="1094" y="426" class="team-win">Florida</text>
<rect x="1074" y="430" width="116" height="15" rx="2" class="slot"/><text x="1078" y="441" class="seed">(16)</text><text x="1098" y="441" class="team">PV A&amp;M</text>
<rect x="1074" y="450" width="116" height="15" rx="2" class="sw"/><text x="1078" y="461" class="seed">(8)</text><text x="1094" y="461" class="team-win">Clemson</text>
<rect x="1074" y="465" width="116" height="15" rx="2" class="slot"/><text x="1078" y="476" class="seed">(9)</text><text x="1094" y="476" class="team">Iowa</text>
<rect x="1074" y="485" width="116" height="15" rx="2" class="sw"/><text x="1078" y="496" class="seed">(5)</text><text x="1094" y="496" class="team-win">Vanderbilt</text>
<rect x="1074" y="500" width="116" height="15" rx="2" class="slot"/><text x="1078" y="511" class="seed">(12)</text><text x="1098" y="511" class="team">McNeese</text>
<rect x="1074" y="520" width="116" height="15" rx="2" class="sw"/><text x="1078" y="531" class="seed">(4)</text><text x="1094" y="531" class="team-win">Nebraska</text>
<rect x="1074" y="535" width="116" height="15" rx="2" class="slot"/><text x="1078" y="546" class="seed">(13)</text><text x="1098" y="546" class="team">Troy</text>
<rect x="1074" y="555" width="116" height="15" rx="2" class="slot"/><text x="1078" y="566" class="seed">(6)</text><text x="1094" y="566" class="team">UNC</text>
<rect x="1074" y="570" width="116" height="15" rx="2" class="sw"/><text x="1078" y="581" class="seed">(11)</text><text x="1098" y="581" class="team-win">VCU</text><text x="1184" y="581" class="upset" font-size="8">★</text>
<rect x="1074" y="590" width="116" height="15" rx="2" class="sw"/><text x="1078" y="601" class="seed">(3)</text><text x="1094" y="601" class="team-win">Illinois</text>
<rect x="1074" y="605" width="116" height="15" rx="2" class="slot"/><text x="1078" y="616" class="seed">(14)</text><text x="1098" y="616" class="team">Penn</text>
<rect x="1074" y="625" width="116" height="15" rx="2" class="slot"/><text x="1078" y="636" class="seed">(7)</text><text x="1094" y="636" class="team">Saint Mary's</text>
<rect x="1074" y="640" width="116" height="15" rx="2" class="sw"/><text x="1078" y="651" class="seed">(10)</text><text x="1098" y="651" class="team-win">Texas A&amp;M</text><text x="1184" y="651" class="upset" font-size="8">★</text>
<rect x="1074" y="660" width="116" height="15" rx="2" class="sw"/><text x="1078" y="671" class="seed">(2)</text><text x="1094" y="671" class="team-win">Houston</text>
<rect x="1074" y="675" width="116" height="15" rx="2" class="slot"/><text x="1078" y="686" class="seed">(15)</text><text x="1098" y="686" class="team">Idaho</text>

<!-- R32 South -->
<rect x="945" y="433" width="110" height="15" rx="2" class="sw"/><text x="949" y="444" class="seed">(1)</text><text x="965" y="444" class="team-win">Florida</text>
<rect x="945" y="448" width="110" height="15" rx="2" class="slot"/><text x="949" y="459" class="seed">(8)</text><text x="965" y="459" class="team">Clemson</text>
<rect x="945" y="503" width="110" height="15" rx="2" class="sw"/><text x="949" y="514" class="seed">(5)</text><text x="965" y="514" class="team-win">Vanderbilt</text>
<rect x="945" y="518" width="110" height="15" rx="2" class="slot"/><text x="949" y="529" class="seed">(4)</text><text x="965" y="529" class="team">Nebraska</text>
<rect x="945" y="573" width="110" height="15" rx="2" class="sw"/><text x="949" y="584" class="seed">(3)</text><text x="965" y="584" class="team-win">Illinois</text>
<rect x="945" y="588" width="110" height="15" rx="2" class="slot"/><text x="949" y="599" class="seed">(11)</text><text x="965" y="599" class="team">VCU</text>
<rect x="945" y="643" width="110" height="15" rx="2" class="sw"/><text x="949" y="654" class="seed">(2)</text><text x="965" y="654" class="team-win">Houston</text>
<rect x="945" y="658" width="110" height="15" rx="2" class="slot"/><text x="949" y="669" class="seed">(10)</text><text x="965" y="669" class="team">Texas A&amp;M</text>

<!-- S16 South -->
<rect x="815" y="468" width="110" height="15" rx="2" class="sw"/><text x="819" y="479" class="seed">(1)</text><text x="835" y="479" class="team-win">Florida</text>
<rect x="815" y="483" width="110" height="15" rx="2" class="slot"/><text x="819" y="494" class="seed">(5)</text><text x="835" y="494" class="team">Vanderbilt</text>
<rect x="815" y="608" width="110" height="15" rx="2" class="sw"/><text x="819" y="619" class="seed">(2)</text><text x="835" y="619" class="team-win">Houston</text>
<rect x="815" y="623" width="110" height="15" rx="2" class="slot"/><text x="819" y="634" class="seed">(3)</text><text x="835" y="634" class="team">Illinois</text>

<!-- E8 South -->
<rect x="685" y="538" width="110" height="15" rx="2" class="slot"/><text x="689" y="549" class="seed">(1)</text><text x="705" y="549" class="team">Florida</text>
<rect x="685" y="553" width="110" height="15" rx="2" class="sw"/><text x="689" y="564" class="seed">(2)</text><text x="705" y="564" class="team-win">Houston</text>

<!-- ====== FINAL FOUR ====== -->
<text x="570" y="215" text-anchor="middle" font-size="9" fill="#475569">WEST vs MIDWEST</text>
<rect x="510" y="220" width="120" height="15" rx="2" class="sa"/><text x="514" y="231" class="seed">(1)</text><text x="530" y="231" class="team-az">Arizona</text>
<rect x="510" y="235" width="120" height="15" rx="2" class="slot"/><text x="514" y="246" class="seed">(1)</text><text x="530" y="246" class="team">Michigan</text>

<text x="570" y="533" text-anchor="middle" font-size="9" fill="#475569">EAST vs SOUTH</text>
<rect x="510" y="538" width="120" height="15" rx="2" class="sw"/><text x="514" y="549" class="seed">(1)</text><text x="530" y="549" class="team-win">Duke</text>
<rect x="510" y="553" width="120" height="15" rx="2" class="slot"/><text x="514" y="564" class="seed">(2)</text><text x="530" y="564" class="team">Houston</text>

<!-- Championship box -->
<rect x="495" y="370" width="150" height="60" rx="8" fill="#CC0033"/>
<text x="570" y="388" text-anchor="middle" font-size="9" fill="rgba(255,255,255,0.7)" font-weight="700" letter-spacing="2">CHAMPIONSHIP</text>
<text x="570" y="408" text-anchor="middle" font-size="20" font-weight="900" fill="#FFF">ARIZONA 72</text>
<text x="570" y="424" text-anchor="middle" font-size="13" fill="rgba(255,255,255,0.6)">Duke 67</text>

<!-- Lines to championship -->
<line x1="570" y1="250" x2="570" y2="370" stroke="#CC0033" stroke-width="1" opacity="0.5"/>
<line x1="570" y1="538" x2="570" y2="430" stroke="#1E293B" stroke-width="0.5"/>

<!-- Legend -->
<rect x="20" y="760" width="10" height="10" rx="2" fill="#22C55E" opacity="0.6"/>
<text x="36" y="769" font-size="10" fill="#94A3B8">Winner</text>
<rect x="100" y="760" width="10" height="10" rx="2" fill="#CC0033" opacity="0.6"/>
<text x="116" y="769" font-size="10" fill="#94A3B8">Arizona path</text>
<text x="210" y="769" font-size="10" fill="#F59E0B">★ Upset</text>
<text x="1190" y="769" text-anchor="end" font-size="9" fill="#475569">Generated March 16, 2026 · KenPom + betting odds + injury data</text>

<text x="600" y="800" text-anchor="middle" font-size="11" fill="#CC0033" font-weight="700" letter-spacing="3">BEAR DOWN</text>
<line x1="0" y1="815" x2="1200" y2="815" stroke="#CC0033" stroke-width="3"/>
</svg>
